<?xml version="1.0" encoding="UTF-8"?>
<!-- Messages — teal speech bubble on near-black. Port of app-icons.jsx::IconMessages. -->
<svg xmlns="http://www.w3.org/2000/svg" viewBox="0 0 64 64">
    <defs>
        <linearGradient id="bg" x1="0" y1="0" x2="0" y2="1">
            <stop offset="0" stop-color="#0a0a0b"/>
            <stop offset="1" stop-color="#040404"/>
        </linearGradient>
    </defs>
    <rect width="64" height="64" rx="14" fill="url(#bg)"/>
    <rect width="64" height="64" rx="14" fill="none" stroke="rgba(0,0,0,0.6)" stroke-width="1"/>
    <g transform="translate(12.8 12.8) scale(1.6)">
        <path d="M3 5a2 2 0 0 1 2-2h14a2 2 0 0 1 2 2v10a2 2 0 0 1-2 2h-4l-4 4-1-4H5a2 2 0 0 1-2-2z" fill="#1de9b6"/>
        <circle cx="9" cy="10" r="1.2" fill="#000"/>
        <circle cx="12" cy="10" r="1.2" fill="#000"/>
        <circle cx="15" cy="10" r="1.2" fill="#000"/>
    </g>
</svg>
