<svg width="123" height="123" viewBox="0 0 123 123" fill="none" xmlns="http://www.w3.org/2000/svg">
<g clip-path="url(#clip0_7_32)">
<path fill-rule="evenodd" clip-rule="evenodd" d="M0.2 41.43H122.2C122.31 41.43 122.4 41.52 122.4 41.63V119.91C122.4 121.54 121.07 122.88 119.43 122.88H2.97C1.34 122.88 0 121.55 0 119.91V41.63C0 41.52 0.09 41.43 0.2 41.43Z" fill="#F2F2F2"/>
<path fill-rule="evenodd" clip-rule="evenodd" d="M0 30.75H122.4V41.43H0V30.75Z" fill="#80B6B1"/>
<path d="M37.65 0.47997V41.19H26.2V10.12C26.2 9.96997 26.27 9.83997 26.38 9.74997L36.85 0.12997C37.05 -0.0500301 37.35 -0.0400301 37.53 0.15997C37.61 0.24997 37.65 0.35997 37.65 0.47997Z" fill="#CBCBCB"/>
<path fill-rule="evenodd" clip-rule="evenodd" d="M37.17 0.47998V41.43H26.68V10.12L37.17 0.47998Z" fill="#F2F2F2"/>
<path d="M84.77 41.19V0.479998C84.77 0.359998 84.81 0.249998 84.9 0.159998C85.08 -0.0300025 85.38 -0.0500025 85.58 0.129998L96.05 9.75C96.16 9.84 96.23 9.97 96.23 10.12V41.19H84.77Z" fill="#CBCBCB"/>
<path fill-rule="evenodd" clip-rule="evenodd" d="M85.25 0.47998V41.43H95.74V10.12L85.25 0.47998Z" fill="#F2F2F2"/>
<path fill-rule="evenodd" clip-rule="evenodd" d="M37.17 0H85.25V10.74H37.17V0Z" fill="#CCCCCC"/>
<path d="M72.006 96C76.638 96.0438 81.3335 95.9958 85.9728 96.0049C86.0327 99.9491 85.975 104.017 85.9749 107.971C81.398 108.032 76.592 107.979 72 107.973L72.006 96Z" fill="#1F969F"/>
<path d="M35.0018 96.0019L48.998 96L48.9917 104.323L48.9903 106.731C48.9905 107.061 49.0177 107.625 48.9802 107.927L48.9109 107.972C44.34 108.034 39.5884 107.974 35 107.973L35.0018 96.0019Z" fill="#1F969F"/>
<path d="M64.6764 71.0008L86 71L85.9971 76.9982L83.421 76.9965L62 77C62.8923 75.0786 63.8623 72.9412 64.6764 71.0008Z" fill="#1F969F"/>
<path d="M35.0175 71.0007L56.4015 71C56.5772 71.5266 56.8994 72.2006 57.1319 72.7285L58.4682 75.7624C58.6279 76.1306 58.8801 76.6264 59 76.9848C58.1462 77.0146 57.1126 76.9914 56.247 76.9914L50.9994 76.9913L35 76.9922C35.0286 74.9957 34.9858 72.995 35.0175 71.0007Z" fill="#1F969F"/>
<path d="M50 78C50.8268 78.0555 52.0194 78.0237 52.8713 78.0237L57.9947 78.0228C62.2641 78.0224 66.7425 78.0915 71 78.0069C70.4194 80.0607 69.7126 82.2254 69.0538 84.2593C68.8704 84.8379 68.6922 85.4181 68.5189 86C66.6786 85.9453 64.7061 85.9821 62.8527 85.9826L52.4821 85.9828C52.4396 85.817 52.3769 85.6484 52.3272 85.4838C51.7334 83.5196 51.0236 81.5949 50.4029 79.6405C50.2317 79.1017 50.0767 78.5608 50 78Z" fill="#1F969F"/>
<path d="M67.4046 64.0097L80.3103 64.011C82.1742 64.0106 84.1428 63.9805 86 64.0215L85.9985 70H83.6624L65 69.9972C65.8273 68.0431 66.5969 65.9869 67.4046 64.0097Z" fill="#1F969F"/>
<path d="M53.3642 64.0053L53.6705 64.0134C54.4314 65.9915 55.2646 67.9972 56 69.9701C54.0224 70.0304 51.7203 69.9808 49.7255 69.9808L37.7864 69.9811L35 69.979L35.0006 64.02C37.1609 63.9835 39.3897 64.0081 41.5542 64.008L53.3642 64.0053Z" fill="#1F969F"/>
<path d="M72 89.0005L85.9979 89C85.948 90.9497 85.9771 93.045 86 95L72.0203 94.9987C72.0321 92.9993 72.0254 90.9998 72 89.0005Z" fill="#1F969F"/>
<path d="M35.0136 89.0025L48.998 89C48.9557 90.9847 49.017 93.0092 48.9951 95L35.0263 94.9974C34.973 93.0379 35.0179 90.968 35.0136 89.0025Z" fill="#1F969F"/>
<path d="M72.0111 78C76.6474 78.044 81.3534 78.0051 85.9963 78.0024C85.9466 80.1057 86.0244 82.2307 85.9917 84.3357C85.9875 84.6098 86.0306 85.8604 85.9369 85.9891C81.3127 85.9379 76.6287 86.0467 72.0159 85.9743C71.9831 83.3377 72.0113 80.6421 72.0111 78Z" fill="#1F969F"/>
<path d="M35 78.0012L48.9825 78L48.9793 83.5597C48.9786 84.2839 48.9661 85.0218 48.9993 85.7455C49.0035 85.84 48.9913 85.9133 48.9276 85.9873L48.7838 86C44.2513 85.9355 39.5437 85.9892 35.0009 85.9936L35 78.0012Z" fill="#1F969F"/>
<path d="M53 89.0149C56.8396 88.9748 60.6946 89.031 64.5354 89.0074C65.6847 89.0005 66.8514 89.0008 68 89.016C67.8135 89.5001 67.4861 90.1389 67.2563 90.6266L65.9643 93.4013C65.6993 93.9556 65.4893 94.432 65.2785 94.9997C64.8931 94.9881 64.4709 94.9872 64.0845 94.9919C61.3171 95.0256 58.5079 94.9396 55.7448 94.9995L53 89.0149Z" fill="#1F969F"/>
<path d="M56 96C56.9961 96.0279 58.0908 96.0058 59.0933 96.0059L65 96.0053C64.8443 96.9151 64.324 98.315 64.02 99.2509L62.1287 105.052C61.8282 105.964 61.4438 107.077 61.2587 108L59.7951 107.998C59.6132 106.599 58.6913 104.273 58.2069 102.859C57.418 100.591 56.6821 98.3036 56 96Z" fill="#1F969F"/>
<path d="M35.0178 58.0145C39.0524 57.9722 43.1035 58.0392 47.1396 58.009C48.3392 58.0001 49.5605 57.9995 50.7589 58.0182C50.9193 58.6912 51.6802 60.2559 52 61L35 60.9998C35.0248 60.0097 34.9796 59.0071 35.0178 58.0145Z" fill="#1F969F"/>
<path d="M70.6412 58.0135C72.4952 57.9866 74.4296 58.0082 76.2892 58.0084L86 58.0092L85.9967 60.9989L84.3864 60.9995L69 61C69.4519 60.0056 69.8453 59.0408 70.2783 58.0541C70.3758 58.0007 70.5178 58.0141 70.6412 58.0135Z" fill="#1F969F"/>
</g>
<defs>
<clipPath id="clip0_7_32">
<rect width="122.4" height="122.88" rx="12" fill="white"/>
</clipPath>
</defs>
</svg>
